<mxfile host="app.diagrams.net" agent="Mozilla/5.0 (Windows NT 10.0; Win64; x64) AppleWebKit/537.36 (KHTML, like Gecko) Chrome/128.0.0.0 Safari/537.36" version="24.7.6">
  <diagram name="Página-1" id="0wHESo1VtIkSjJBG2rGU">
    <mxGraphModel dx="1050" dy="522" grid="0" gridSize="10" guides="1" tooltips="1" connect="1" arrows="1" fold="1" page="1" pageScale="1" pageWidth="827" pageHeight="1169" math="0" shadow="0">
      <root>
        <mxCell id="0" />
        <mxCell id="1" parent="0" />
        <mxCell id="lVoV7rFXFMEaR6csnWot-1" value="Cliente" style="whiteSpace=wrap;html=1;align=center;fillColor=#dae8fc;strokeColor=#6c8ebf;" parent="1" vertex="1">
          <mxGeometry x="102" y="35" width="100" height="40" as="geometry" />
        </mxCell>
        <mxCell id="lVoV7rFXFMEaR6csnWot-2" value="Usuario" style="ellipse;whiteSpace=wrap;html=1;align=center;fontStyle=5" parent="1" vertex="1">
          <mxGeometry x="128" y="3.5" width="61" height="21" as="geometry" />
        </mxCell>
        <mxCell id="lVoV7rFXFMEaR6csnWot-3" value="Senha" style="ellipse;whiteSpace=wrap;html=1;align=center;" parent="1" vertex="1">
          <mxGeometry x="65.5" y="4" width="56" height="20" as="geometry" />
        </mxCell>
        <mxCell id="lVoV7rFXFMEaR6csnWot-4" value="Nome" style="ellipse;whiteSpace=wrap;html=1;align=center;" parent="1" vertex="1">
          <mxGeometry x="7" y="15" width="54" height="20" as="geometry" />
        </mxCell>
        <mxCell id="lVoV7rFXFMEaR6csnWot-5" value="E-mail" style="ellipse;whiteSpace=wrap;html=1;align=center;" parent="1" vertex="1">
          <mxGeometry x="8.5" y="45" width="57" height="20" as="geometry" />
        </mxCell>
        <mxCell id="lVoV7rFXFMEaR6csnWot-6" value="Telefone" style="ellipse;whiteSpace=wrap;html=1;align=center;" parent="1" vertex="1">
          <mxGeometry x="3.5" y="74" width="57" height="21" as="geometry" />
        </mxCell>
        <mxCell id="lVoV7rFXFMEaR6csnWot-7" value="Instagram" style="ellipse;whiteSpace=wrap;html=1;align=center;" parent="1" vertex="1">
          <mxGeometry x="7" y="103" width="60" height="22" as="geometry" />
        </mxCell>
        <mxCell id="lVoV7rFXFMEaR6csnWot-8" value="" style="endArrow=none;html=1;rounded=0;exitX=0;exitY=0;exitDx=0;exitDy=0;entryX=0;entryY=0.5;entryDx=0;entryDy=0;" parent="1" source="lVoV7rFXFMEaR6csnWot-1" target="lVoV7rFXFMEaR6csnWot-2" edge="1">
          <mxGeometry relative="1" as="geometry">
            <mxPoint x="218" y="54.5" as="sourcePoint" />
            <mxPoint x="378" y="54.5" as="targetPoint" />
          </mxGeometry>
        </mxCell>
        <mxCell id="lVoV7rFXFMEaR6csnWot-9" value="" style="endArrow=none;html=1;rounded=0;exitX=0;exitY=0.5;exitDx=0;exitDy=0;entryX=0;entryY=0.5;entryDx=0;entryDy=0;" parent="1" source="lVoV7rFXFMEaR6csnWot-1" target="lVoV7rFXFMEaR6csnWot-3" edge="1">
          <mxGeometry relative="1" as="geometry">
            <mxPoint x="166" y="117" as="sourcePoint" />
            <mxPoint x="326" y="117" as="targetPoint" />
          </mxGeometry>
        </mxCell>
        <mxCell id="lVoV7rFXFMEaR6csnWot-10" value="" style="endArrow=none;html=1;rounded=0;exitX=0;exitY=0.5;exitDx=0;exitDy=0;entryX=0;entryY=0.5;entryDx=0;entryDy=0;" parent="1" source="lVoV7rFXFMEaR6csnWot-1" target="lVoV7rFXFMEaR6csnWot-4" edge="1">
          <mxGeometry relative="1" as="geometry">
            <mxPoint x="118" y="156" as="sourcePoint" />
            <mxPoint x="278" y="156" as="targetPoint" />
          </mxGeometry>
        </mxCell>
        <mxCell id="lVoV7rFXFMEaR6csnWot-12" value="" style="endArrow=none;html=1;rounded=0;exitX=0;exitY=1;exitDx=0;exitDy=0;entryX=0;entryY=0.5;entryDx=0;entryDy=0;" parent="1" source="lVoV7rFXFMEaR6csnWot-1" target="lVoV7rFXFMEaR6csnWot-5" edge="1">
          <mxGeometry relative="1" as="geometry">
            <mxPoint x="175" y="120" as="sourcePoint" />
            <mxPoint x="335" y="120" as="targetPoint" />
          </mxGeometry>
        </mxCell>
        <mxCell id="lVoV7rFXFMEaR6csnWot-13" value="" style="endArrow=none;html=1;rounded=0;exitX=0;exitY=1;exitDx=0;exitDy=0;entryX=0.5;entryY=0;entryDx=0;entryDy=0;" parent="1" source="lVoV7rFXFMEaR6csnWot-1" target="lVoV7rFXFMEaR6csnWot-6" edge="1">
          <mxGeometry relative="1" as="geometry">
            <mxPoint x="108" y="132" as="sourcePoint" />
            <mxPoint x="268" y="132" as="targetPoint" />
          </mxGeometry>
        </mxCell>
        <mxCell id="lVoV7rFXFMEaR6csnWot-14" value="" style="endArrow=none;html=1;rounded=0;exitX=0;exitY=1;exitDx=0;exitDy=0;entryX=0.5;entryY=0;entryDx=0;entryDy=0;" parent="1" source="lVoV7rFXFMEaR6csnWot-1" target="lVoV7rFXFMEaR6csnWot-7" edge="1">
          <mxGeometry relative="1" as="geometry">
            <mxPoint x="132" y="111" as="sourcePoint" />
            <mxPoint x="292" y="111" as="targetPoint" />
          </mxGeometry>
        </mxCell>
        <mxCell id="lVoV7rFXFMEaR6csnWot-15" value="Evento" style="whiteSpace=wrap;html=1;align=center;fillColor=#ffe6cc;strokeColor=#d79b00;" parent="1" vertex="1">
          <mxGeometry x="114" y="242.5" width="100" height="40" as="geometry" />
        </mxCell>
        <mxCell id="lVoV7rFXFMEaR6csnWot-16" value="Nome" style="ellipse;whiteSpace=wrap;html=1;align=center;" parent="1" vertex="1">
          <mxGeometry x="15" y="293" width="46" height="22" as="geometry" />
        </mxCell>
        <mxCell id="lVoV7rFXFMEaR6csnWot-17" value="Descrição" style="ellipse;whiteSpace=wrap;html=1;align=center;" parent="1" vertex="1">
          <mxGeometry x="138" y="319.5" width="64" height="26" as="geometry" />
        </mxCell>
        <mxCell id="lVoV7rFXFMEaR6csnWot-18" value="Data" style="ellipse;whiteSpace=wrap;html=1;align=center;" parent="1" vertex="1">
          <mxGeometry x="8" y="327.5" width="52" height="20" as="geometry" />
        </mxCell>
        <mxCell id="lVoV7rFXFMEaR6csnWot-19" value="Banner" style="ellipse;whiteSpace=wrap;html=1;align=center;" parent="1" vertex="1">
          <mxGeometry x="6.5" y="373" width="61" height="26" as="geometry" />
        </mxCell>
        <mxCell id="lVoV7rFXFMEaR6csnWot-20" value="Preco_Ingresso" style="ellipse;whiteSpace=wrap;html=1;align=center;" parent="1" vertex="1">
          <mxGeometry x="53" y="399" width="91" height="30" as="geometry" />
        </mxCell>
        <mxCell id="lVoV7rFXFMEaR6csnWot-21" value="URL_Ingresso" style="ellipse;whiteSpace=wrap;html=1;align=center;" parent="1" vertex="1">
          <mxGeometry x="13" y="179.5" width="86" height="33" as="geometry" />
        </mxCell>
        <mxCell id="lVoV7rFXFMEaR6csnWot-22" value="CEP" style="ellipse;whiteSpace=wrap;html=1;align=center;" parent="1" vertex="1">
          <mxGeometry x="197" y="380" width="58" height="24" as="geometry" />
        </mxCell>
        <mxCell id="lVoV7rFXFMEaR6csnWot-23" value="Rua" style="ellipse;whiteSpace=wrap;html=1;align=center;" parent="1" vertex="1">
          <mxGeometry x="181" y="410" width="54" height="23" as="geometry" />
        </mxCell>
        <mxCell id="lVoV7rFXFMEaR6csnWot-24" value="Número" style="ellipse;whiteSpace=wrap;html=1;align=center;" parent="1" vertex="1">
          <mxGeometry x="138" y="435" width="55" height="24" as="geometry" />
        </mxCell>
        <mxCell id="lVoV7rFXFMEaR6csnWot-25" value="Complemento" style="ellipse;whiteSpace=wrap;html=1;align=center;" parent="1" vertex="1">
          <mxGeometry x="406" y="416" width="74" height="28" as="geometry" />
        </mxCell>
        <mxCell id="lVoV7rFXFMEaR6csnWot-26" value="Bairro" style="ellipse;whiteSpace=wrap;html=1;align=center;" parent="1" vertex="1">
          <mxGeometry x="388" y="450" width="52" height="25" as="geometry" />
        </mxCell>
        <mxCell id="lVoV7rFXFMEaR6csnWot-27" value="Cidade" style="ellipse;whiteSpace=wrap;html=1;align=center;" parent="1" vertex="1">
          <mxGeometry x="330" y="475" width="65" height="25" as="geometry" />
        </mxCell>
        <mxCell id="lVoV7rFXFMEaR6csnWot-28" value="UF" style="ellipse;whiteSpace=wrap;html=1;align=center;" parent="1" vertex="1">
          <mxGeometry x="265.5" y="482" width="53" height="18" as="geometry" />
        </mxCell>
        <mxCell id="lVoV7rFXFMEaR6csnWot-29" value="Tipo_Evento" style="ellipse;whiteSpace=wrap;html=1;align=center;" parent="1" vertex="1">
          <mxGeometry x="7" y="258.5" width="74" height="27" as="geometry" />
        </mxCell>
        <mxCell id="lVoV7rFXFMEaR6csnWot-31" value="ID_Evento" style="ellipse;whiteSpace=wrap;html=1;align=center;fontStyle=5" parent="1" vertex="1">
          <mxGeometry x="9.5" y="224" width="64" height="28" as="geometry" />
        </mxCell>
        <mxCell id="lVoV7rFXFMEaR6csnWot-33" value="Endereço" style="whiteSpace=wrap;html=1;align=center;fillColor=#e1d5e7;strokeColor=#9673a6;" parent="1" vertex="1">
          <mxGeometry x="263" y="410" width="100" height="40" as="geometry" />
        </mxCell>
        <mxCell id="lVoV7rFXFMEaR6csnWot-34" value="ID_Endereço" style="ellipse;whiteSpace=wrap;html=1;align=center;fontStyle=5" parent="1" vertex="1">
          <mxGeometry x="186.5" y="457" width="79" height="25" as="geometry" />
        </mxCell>
        <mxCell id="lVoV7rFXFMEaR6csnWot-35" value="" style="endArrow=none;html=1;rounded=0;exitX=0;exitY=0;exitDx=0;exitDy=0;entryX=0.5;entryY=1;entryDx=0;entryDy=0;" parent="1" source="lVoV7rFXFMEaR6csnWot-15" target="lVoV7rFXFMEaR6csnWot-21" edge="1">
          <mxGeometry relative="1" as="geometry">
            <mxPoint x="108" y="212.5" as="sourcePoint" />
            <mxPoint x="268" y="212.5" as="targetPoint" />
          </mxGeometry>
        </mxCell>
        <mxCell id="lVoV7rFXFMEaR6csnWot-36" value="" style="endArrow=none;html=1;rounded=0;exitX=0;exitY=0.25;exitDx=0;exitDy=0;entryX=0.5;entryY=1;entryDx=0;entryDy=0;" parent="1" source="lVoV7rFXFMEaR6csnWot-15" target="lVoV7rFXFMEaR6csnWot-31" edge="1">
          <mxGeometry relative="1" as="geometry">
            <mxPoint x="420" y="232.5" as="sourcePoint" />
            <mxPoint x="580" y="232.5" as="targetPoint" />
          </mxGeometry>
        </mxCell>
        <mxCell id="lVoV7rFXFMEaR6csnWot-37" value="" style="endArrow=none;html=1;rounded=0;exitX=0;exitY=0.5;exitDx=0;exitDy=0;entryX=0;entryY=0.5;entryDx=0;entryDy=0;" parent="1" source="lVoV7rFXFMEaR6csnWot-15" target="lVoV7rFXFMEaR6csnWot-29" edge="1">
          <mxGeometry relative="1" as="geometry">
            <mxPoint x="420" y="232.5" as="sourcePoint" />
            <mxPoint x="580" y="232.5" as="targetPoint" />
          </mxGeometry>
        </mxCell>
        <mxCell id="lVoV7rFXFMEaR6csnWot-38" value="" style="endArrow=none;html=1;rounded=0;exitX=0;exitY=1;exitDx=0;exitDy=0;entryX=0;entryY=0.5;entryDx=0;entryDy=0;" parent="1" source="lVoV7rFXFMEaR6csnWot-15" target="lVoV7rFXFMEaR6csnWot-16" edge="1">
          <mxGeometry relative="1" as="geometry">
            <mxPoint x="420" y="232.5" as="sourcePoint" />
            <mxPoint x="580" y="232.5" as="targetPoint" />
          </mxGeometry>
        </mxCell>
        <mxCell id="lVoV7rFXFMEaR6csnWot-39" value="" style="endArrow=none;html=1;rounded=0;exitX=0.5;exitY=1;exitDx=0;exitDy=0;entryX=0;entryY=0.5;entryDx=0;entryDy=0;" parent="1" source="lVoV7rFXFMEaR6csnWot-15" target="lVoV7rFXFMEaR6csnWot-17" edge="1">
          <mxGeometry relative="1" as="geometry">
            <mxPoint x="332" y="232" as="sourcePoint" />
            <mxPoint x="492" y="232" as="targetPoint" />
          </mxGeometry>
        </mxCell>
        <mxCell id="lVoV7rFXFMEaR6csnWot-40" value="" style="endArrow=none;html=1;rounded=0;exitX=0.5;exitY=1;exitDx=0;exitDy=0;entryX=0;entryY=0.5;entryDx=0;entryDy=0;" parent="1" source="lVoV7rFXFMEaR6csnWot-15" target="lVoV7rFXFMEaR6csnWot-18" edge="1">
          <mxGeometry relative="1" as="geometry">
            <mxPoint x="332" y="232" as="sourcePoint" />
            <mxPoint x="492" y="232" as="targetPoint" />
          </mxGeometry>
        </mxCell>
        <mxCell id="lVoV7rFXFMEaR6csnWot-41" value="" style="endArrow=none;html=1;rounded=0;exitX=0.5;exitY=1;exitDx=0;exitDy=0;entryX=0.5;entryY=0;entryDx=0;entryDy=0;" parent="1" source="lVoV7rFXFMEaR6csnWot-15" target="lVoV7rFXFMEaR6csnWot-19" edge="1">
          <mxGeometry relative="1" as="geometry">
            <mxPoint x="332" y="232" as="sourcePoint" />
            <mxPoint x="492" y="232" as="targetPoint" />
          </mxGeometry>
        </mxCell>
        <mxCell id="lVoV7rFXFMEaR6csnWot-42" value="" style="endArrow=none;html=1;rounded=0;exitX=0.5;exitY=1;exitDx=0;exitDy=0;entryX=0.437;entryY=0.16;entryDx=0;entryDy=0;entryPerimeter=0;" parent="1" source="lVoV7rFXFMEaR6csnWot-15" target="lVoV7rFXFMEaR6csnWot-20" edge="1">
          <mxGeometry relative="1" as="geometry">
            <mxPoint x="332" y="232" as="sourcePoint" />
            <mxPoint x="492" y="232" as="targetPoint" />
          </mxGeometry>
        </mxCell>
        <mxCell id="lVoV7rFXFMEaR6csnWot-43" value="" style="endArrow=none;html=1;rounded=0;exitX=1;exitY=1;exitDx=0;exitDy=0;entryX=0;entryY=0;entryDx=0;entryDy=0;" parent="1" source="lVoV7rFXFMEaR6csnWot-22" target="lVoV7rFXFMEaR6csnWot-33" edge="1">
          <mxGeometry relative="1" as="geometry">
            <mxPoint x="332" y="232" as="sourcePoint" />
            <mxPoint x="492" y="232" as="targetPoint" />
          </mxGeometry>
        </mxCell>
        <mxCell id="lVoV7rFXFMEaR6csnWot-44" value="" style="endArrow=none;html=1;rounded=0;exitX=0.5;exitY=0;exitDx=0;exitDy=0;entryX=0;entryY=1;entryDx=0;entryDy=0;" parent="1" source="lVoV7rFXFMEaR6csnWot-34" target="lVoV7rFXFMEaR6csnWot-33" edge="1">
          <mxGeometry relative="1" as="geometry">
            <mxPoint x="332" y="232" as="sourcePoint" />
            <mxPoint x="492" y="232" as="targetPoint" />
          </mxGeometry>
        </mxCell>
        <mxCell id="lVoV7rFXFMEaR6csnWot-47" value="" style="endArrow=none;html=1;rounded=0;exitX=0.5;exitY=1;exitDx=0;exitDy=0;entryX=0;entryY=0;entryDx=0;entryDy=0;" parent="1" source="lVoV7rFXFMEaR6csnWot-23" target="lVoV7rFXFMEaR6csnWot-33" edge="1">
          <mxGeometry relative="1" as="geometry">
            <mxPoint x="331" y="232" as="sourcePoint" />
            <mxPoint x="491" y="232" as="targetPoint" />
          </mxGeometry>
        </mxCell>
        <mxCell id="lVoV7rFXFMEaR6csnWot-48" value="" style="endArrow=none;html=1;rounded=0;exitX=1;exitY=0.5;exitDx=0;exitDy=0;entryX=0;entryY=0.5;entryDx=0;entryDy=0;" parent="1" source="lVoV7rFXFMEaR6csnWot-24" target="lVoV7rFXFMEaR6csnWot-33" edge="1">
          <mxGeometry relative="1" as="geometry">
            <mxPoint x="331" y="232" as="sourcePoint" />
            <mxPoint x="491" y="232" as="targetPoint" />
          </mxGeometry>
        </mxCell>
        <mxCell id="lVoV7rFXFMEaR6csnWot-49" value="" style="endArrow=none;html=1;rounded=0;exitX=0.5;exitY=0;exitDx=0;exitDy=0;entryX=0.5;entryY=1;entryDx=0;entryDy=0;" parent="1" source="lVoV7rFXFMEaR6csnWot-28" target="lVoV7rFXFMEaR6csnWot-33" edge="1">
          <mxGeometry relative="1" as="geometry">
            <mxPoint x="331" y="232" as="sourcePoint" />
            <mxPoint x="491" y="232" as="targetPoint" />
          </mxGeometry>
        </mxCell>
        <mxCell id="lVoV7rFXFMEaR6csnWot-50" value="" style="endArrow=none;html=1;rounded=0;exitX=0.5;exitY=0;exitDx=0;exitDy=0;entryX=0.5;entryY=1;entryDx=0;entryDy=0;" parent="1" source="lVoV7rFXFMEaR6csnWot-27" target="lVoV7rFXFMEaR6csnWot-33" edge="1">
          <mxGeometry relative="1" as="geometry">
            <mxPoint x="331" y="232" as="sourcePoint" />
            <mxPoint x="491" y="232" as="targetPoint" />
          </mxGeometry>
        </mxCell>
        <mxCell id="lVoV7rFXFMEaR6csnWot-51" value="" style="endArrow=none;html=1;rounded=0;exitX=0;exitY=0.5;exitDx=0;exitDy=0;entryX=0.5;entryY=1;entryDx=0;entryDy=0;" parent="1" source="lVoV7rFXFMEaR6csnWot-26" target="lVoV7rFXFMEaR6csnWot-33" edge="1">
          <mxGeometry relative="1" as="geometry">
            <mxPoint x="331" y="232" as="sourcePoint" />
            <mxPoint x="491" y="232" as="targetPoint" />
          </mxGeometry>
        </mxCell>
        <mxCell id="lVoV7rFXFMEaR6csnWot-52" value="" style="endArrow=none;html=1;rounded=0;entryX=0;entryY=0.5;entryDx=0;entryDy=0;exitX=1;exitY=0.5;exitDx=0;exitDy=0;" parent="1" source="lVoV7rFXFMEaR6csnWot-33" target="lVoV7rFXFMEaR6csnWot-25" edge="1">
          <mxGeometry relative="1" as="geometry">
            <mxPoint x="331" y="232" as="sourcePoint" />
            <mxPoint x="491" y="232" as="targetPoint" />
          </mxGeometry>
        </mxCell>
        <mxCell id="lVoV7rFXFMEaR6csnWot-53" value="Mensagem" style="whiteSpace=wrap;html=1;align=center;fillColor=#f8cecc;strokeColor=#b85450;" parent="1" vertex="1">
          <mxGeometry x="429" y="268.5" width="100" height="40" as="geometry" />
        </mxCell>
        <mxCell id="lVoV7rFXFMEaR6csnWot-54" value="Conteúdo" style="ellipse;whiteSpace=wrap;html=1;align=center;" parent="1" vertex="1">
          <mxGeometry x="585" y="268.5" width="55" height="27" as="geometry" />
        </mxCell>
        <mxCell id="lVoV7rFXFMEaR6csnWot-55" value="Likes" style="ellipse;whiteSpace=wrap;html=1;align=center;" parent="1" vertex="1">
          <mxGeometry x="416.5" y="329.5" width="52" height="20" as="geometry" />
        </mxCell>
        <mxCell id="lVoV7rFXFMEaR6csnWot-56" value="Mídia" style="ellipse;whiteSpace=wrap;html=1;align=center;" parent="1" vertex="1">
          <mxGeometry x="486" y="327.5" width="51" height="18" as="geometry" />
        </mxCell>
        <mxCell id="lVoV7rFXFMEaR6csnWot-59" value="ID_Mensagem" style="ellipse;whiteSpace=wrap;html=1;align=center;fontStyle=5" parent="1" vertex="1">
          <mxGeometry x="572" y="305" width="86" height="27" as="geometry" />
        </mxCell>
        <mxCell id="lVoV7rFXFMEaR6csnWot-60" value="" style="endArrow=none;html=1;rounded=0;exitX=1;exitY=1;exitDx=0;exitDy=0;entryX=0.5;entryY=1;entryDx=0;entryDy=0;" parent="1" source="lVoV7rFXFMEaR6csnWot-53" target="lVoV7rFXFMEaR6csnWot-59" edge="1">
          <mxGeometry relative="1" as="geometry">
            <mxPoint x="411" y="250.5" as="sourcePoint" />
            <mxPoint x="571" y="250.5" as="targetPoint" />
          </mxGeometry>
        </mxCell>
        <mxCell id="lVoV7rFXFMEaR6csnWot-61" value="" style="endArrow=none;html=1;rounded=0;exitX=1;exitY=1;exitDx=0;exitDy=0;entryX=0.5;entryY=1;entryDx=0;entryDy=0;" parent="1" source="lVoV7rFXFMEaR6csnWot-53" target="lVoV7rFXFMEaR6csnWot-54" edge="1">
          <mxGeometry relative="1" as="geometry">
            <mxPoint x="411" y="250.5" as="sourcePoint" />
            <mxPoint x="571" y="250.5" as="targetPoint" />
          </mxGeometry>
        </mxCell>
        <mxCell id="lVoV7rFXFMEaR6csnWot-64" value="" style="endArrow=none;html=1;rounded=0;exitX=0.5;exitY=0;exitDx=0;exitDy=0;entryX=0.5;entryY=1;entryDx=0;entryDy=0;" parent="1" source="lVoV7rFXFMEaR6csnWot-55" target="lVoV7rFXFMEaR6csnWot-53" edge="1">
          <mxGeometry relative="1" as="geometry">
            <mxPoint x="411" y="250.5" as="sourcePoint" />
            <mxPoint x="571" y="250.5" as="targetPoint" />
          </mxGeometry>
        </mxCell>
        <mxCell id="lVoV7rFXFMEaR6csnWot-65" value="" style="endArrow=none;html=1;rounded=0;exitX=0.5;exitY=0;exitDx=0;exitDy=0;entryX=0.5;entryY=1;entryDx=0;entryDy=0;" parent="1" source="lVoV7rFXFMEaR6csnWot-56" target="lVoV7rFXFMEaR6csnWot-53" edge="1">
          <mxGeometry relative="1" as="geometry">
            <mxPoint x="411" y="250.5" as="sourcePoint" />
            <mxPoint x="571" y="250.5" as="targetPoint" />
          </mxGeometry>
        </mxCell>
        <mxCell id="lVoV7rFXFMEaR6csnWot-66" value="Resposta" style="whiteSpace=wrap;html=1;align=center;fillColor=#d5e8d4;strokeColor=#82b366;" parent="1" vertex="1">
          <mxGeometry x="614" y="59.5" width="100" height="40" as="geometry" />
        </mxCell>
        <mxCell id="lVoV7rFXFMEaR6csnWot-67" value="ID_Resposta" style="ellipse;whiteSpace=wrap;html=1;align=center;fontStyle=5" parent="1" vertex="1">
          <mxGeometry x="741" y="39" width="77" height="25" as="geometry" />
        </mxCell>
        <mxCell id="lVoV7rFXFMEaR6csnWot-68" value="Conteúdo" style="ellipse;whiteSpace=wrap;html=1;align=center;" parent="1" vertex="1">
          <mxGeometry x="756" y="73" width="62" height="30" as="geometry" />
        </mxCell>
        <mxCell id="lVoV7rFXFMEaR6csnWot-69" value="Mídia" style="ellipse;whiteSpace=wrap;html=1;align=center;" parent="1" vertex="1">
          <mxGeometry x="669" y="142.5" width="50" height="21" as="geometry" />
        </mxCell>
        <mxCell id="lVoV7rFXFMEaR6csnWot-70" value="Likes" style="ellipse;whiteSpace=wrap;html=1;align=center;" parent="1" vertex="1">
          <mxGeometry x="711" y="114" width="55" height="26" as="geometry" />
        </mxCell>
        <mxCell id="lVoV7rFXFMEaR6csnWot-71" value="" style="endArrow=none;html=1;rounded=0;entryX=0.5;entryY=1;entryDx=0;entryDy=0;exitX=0.5;exitY=0;exitDx=0;exitDy=0;" parent="1" source="lVoV7rFXFMEaR6csnWot-69" target="lVoV7rFXFMEaR6csnWot-66" edge="1">
          <mxGeometry relative="1" as="geometry">
            <mxPoint x="351" y="157" as="sourcePoint" />
            <mxPoint x="511" y="157" as="targetPoint" />
          </mxGeometry>
        </mxCell>
        <mxCell id="lVoV7rFXFMEaR6csnWot-72" value="" style="endArrow=none;html=1;rounded=0;exitX=0.5;exitY=0;exitDx=0;exitDy=0;entryX=0.5;entryY=1;entryDx=0;entryDy=0;" parent="1" source="lVoV7rFXFMEaR6csnWot-70" target="lVoV7rFXFMEaR6csnWot-66" edge="1">
          <mxGeometry relative="1" as="geometry">
            <mxPoint x="351" y="157" as="sourcePoint" />
            <mxPoint x="511" y="157" as="targetPoint" />
          </mxGeometry>
        </mxCell>
        <mxCell id="lVoV7rFXFMEaR6csnWot-73" value="" style="endArrow=none;html=1;rounded=0;exitX=0.5;exitY=1;exitDx=0;exitDy=0;entryX=1;entryY=0.5;entryDx=0;entryDy=0;" parent="1" source="lVoV7rFXFMEaR6csnWot-67" target="lVoV7rFXFMEaR6csnWot-66" edge="1">
          <mxGeometry relative="1" as="geometry">
            <mxPoint x="351" y="157" as="sourcePoint" />
            <mxPoint x="511" y="157" as="targetPoint" />
          </mxGeometry>
        </mxCell>
        <mxCell id="lVoV7rFXFMEaR6csnWot-74" value="" style="endArrow=none;html=1;rounded=0;exitX=0.5;exitY=1;exitDx=0;exitDy=0;entryX=1;entryY=0.5;entryDx=0;entryDy=0;" parent="1" source="lVoV7rFXFMEaR6csnWot-68" target="lVoV7rFXFMEaR6csnWot-66" edge="1">
          <mxGeometry relative="1" as="geometry">
            <mxPoint x="351" y="157" as="sourcePoint" />
            <mxPoint x="511" y="157" as="targetPoint" />
          </mxGeometry>
        </mxCell>
        <mxCell id="lVoV7rFXFMEaR6csnWot-75" value="Aviso" style="whiteSpace=wrap;html=1;align=center;fillColor=#fff2cc;strokeColor=#d6b656;" parent="1" vertex="1">
          <mxGeometry x="354" y="39" width="100" height="40" as="geometry" />
        </mxCell>
        <mxCell id="lVoV7rFXFMEaR6csnWot-76" value="ID_Aviso" style="ellipse;whiteSpace=wrap;html=1;align=center;fontStyle=5" parent="1" vertex="1">
          <mxGeometry x="313" y="4" width="69" height="20" as="geometry" />
        </mxCell>
        <mxCell id="lVoV7rFXFMEaR6csnWot-77" value="Conteúdo" style="ellipse;whiteSpace=wrap;html=1;align=center;" parent="1" vertex="1">
          <mxGeometry x="454" y="9" width="70" height="23" as="geometry" />
        </mxCell>
        <mxCell id="lVoV7rFXFMEaR6csnWot-78" value="Mídia" style="ellipse;whiteSpace=wrap;html=1;align=center;" parent="1" vertex="1">
          <mxGeometry x="476" y="50" width="72" height="22" as="geometry" />
        </mxCell>
        <mxCell id="lVoV7rFXFMEaR6csnWot-79" value="" style="endArrow=none;html=1;rounded=0;exitX=0;exitY=0.5;exitDx=0;exitDy=0;entryX=1;entryY=0.5;entryDx=0;entryDy=0;" parent="1" source="lVoV7rFXFMEaR6csnWot-78" target="lVoV7rFXFMEaR6csnWot-75" edge="1">
          <mxGeometry relative="1" as="geometry">
            <mxPoint x="331" y="232" as="sourcePoint" />
            <mxPoint x="491" y="232" as="targetPoint" />
          </mxGeometry>
        </mxCell>
        <mxCell id="lVoV7rFXFMEaR6csnWot-80" value="" style="endArrow=none;html=1;rounded=0;entryX=0;entryY=0.5;entryDx=0;entryDy=0;exitX=0.5;exitY=0;exitDx=0;exitDy=0;" parent="1" source="lVoV7rFXFMEaR6csnWot-75" target="lVoV7rFXFMEaR6csnWot-77" edge="1">
          <mxGeometry relative="1" as="geometry">
            <mxPoint x="331" y="232" as="sourcePoint" />
            <mxPoint x="491" y="232" as="targetPoint" />
          </mxGeometry>
        </mxCell>
        <mxCell id="lVoV7rFXFMEaR6csnWot-81" value="" style="endArrow=none;html=1;rounded=0;exitX=0.5;exitY=1;exitDx=0;exitDy=0;entryX=0.5;entryY=0;entryDx=0;entryDy=0;" parent="1" source="lVoV7rFXFMEaR6csnWot-76" target="lVoV7rFXFMEaR6csnWot-75" edge="1">
          <mxGeometry relative="1" as="geometry">
            <mxPoint x="331" y="232" as="sourcePoint" />
            <mxPoint x="491" y="232" as="targetPoint" />
          </mxGeometry>
        </mxCell>
        <mxCell id="ZfcmC7w9CeBII0YPpODk-1" value="Possui" style="shape=rhombus;perimeter=rhombusPerimeter;whiteSpace=wrap;html=1;align=center;fillColor=#f5f5f5;fontColor=#333333;strokeColor=#666666;" parent="1" vertex="1">
          <mxGeometry x="123" y="142.5" width="74" height="37" as="geometry" />
        </mxCell>
        <mxCell id="ZfcmC7w9CeBII0YPpODk-3" value="" style="endArrow=none;html=1;rounded=0;exitX=0.5;exitY=1;exitDx=0;exitDy=0;entryX=0.5;entryY=0;entryDx=0;entryDy=0;" parent="1" source="lVoV7rFXFMEaR6csnWot-1" target="ZfcmC7w9CeBII0YPpODk-1" edge="1">
          <mxGeometry relative="1" as="geometry">
            <mxPoint x="157" y="169" as="sourcePoint" />
            <mxPoint x="142" y="158.5" as="targetPoint" />
          </mxGeometry>
        </mxCell>
        <mxCell id="ZfcmC7w9CeBII0YPpODk-4" value="" style="endArrow=none;html=1;rounded=0;exitX=0.5;exitY=0;exitDx=0;exitDy=0;entryX=0.5;entryY=1;entryDx=0;entryDy=0;" parent="1" source="lVoV7rFXFMEaR6csnWot-15" target="ZfcmC7w9CeBII0YPpODk-1" edge="1">
          <mxGeometry relative="1" as="geometry">
            <mxPoint x="204" y="169.5" as="sourcePoint" />
            <mxPoint x="154" y="180" as="targetPoint" />
          </mxGeometry>
        </mxCell>
        <mxCell id="ZfcmC7w9CeBII0YPpODk-6" value="N" style="text;strokeColor=none;align=center;fillColor=none;html=1;verticalAlign=middle;whiteSpace=wrap;rounded=0;" parent="1" vertex="1">
          <mxGeometry x="128" y="79" width="24" height="15" as="geometry" />
        </mxCell>
        <mxCell id="ZfcmC7w9CeBII0YPpODk-7" value="N" style="text;strokeColor=none;align=center;fillColor=none;html=1;verticalAlign=middle;whiteSpace=wrap;rounded=0;" parent="1" vertex="1">
          <mxGeometry x="144" y="224" width="22" height="17" as="geometry" />
        </mxCell>
        <mxCell id="ZfcmC7w9CeBII0YPpODk-8" value="Possui" style="shape=rhombus;perimeter=rhombusPerimeter;whiteSpace=wrap;html=1;align=center;fillColor=#f5f5f5;fontColor=#333333;strokeColor=#666666;" parent="1" vertex="1">
          <mxGeometry x="293" y="255.5" width="70" height="35" as="geometry" />
        </mxCell>
        <mxCell id="ZfcmC7w9CeBII0YPpODk-9" value="" style="endArrow=none;html=1;rounded=0;exitX=1;exitY=0.5;exitDx=0;exitDy=0;entryX=0;entryY=0.5;entryDx=0;entryDy=0;" parent="1" source="lVoV7rFXFMEaR6csnWot-15" target="ZfcmC7w9CeBII0YPpODk-8" edge="1">
          <mxGeometry relative="1" as="geometry">
            <mxPoint x="226" y="294.5" as="sourcePoint" />
            <mxPoint x="283" y="292.5" as="targetPoint" />
          </mxGeometry>
        </mxCell>
        <mxCell id="ZfcmC7w9CeBII0YPpODk-10" value="" style="endArrow=none;html=1;rounded=0;exitX=1;exitY=0.5;exitDx=0;exitDy=0;entryX=0;entryY=0.5;entryDx=0;entryDy=0;" parent="1" source="ZfcmC7w9CeBII0YPpODk-8" target="lVoV7rFXFMEaR6csnWot-53" edge="1">
          <mxGeometry relative="1" as="geometry">
            <mxPoint x="255" y="305" as="sourcePoint" />
            <mxPoint x="415" y="305" as="targetPoint" />
          </mxGeometry>
        </mxCell>
        <mxCell id="ZfcmC7w9CeBII0YPpODk-11" value="1" style="text;strokeColor=none;align=center;fillColor=none;html=1;verticalAlign=middle;whiteSpace=wrap;rounded=0;" parent="1" vertex="1">
          <mxGeometry x="214" y="264.5" width="21" height="18" as="geometry" />
        </mxCell>
        <mxCell id="ZfcmC7w9CeBII0YPpODk-12" value="N" style="text;strokeColor=none;align=center;fillColor=none;html=1;verticalAlign=middle;whiteSpace=wrap;rounded=0;" parent="1" vertex="1">
          <mxGeometry x="410" y="288.5" width="24" height="20" as="geometry" />
        </mxCell>
        <mxCell id="ZfcmC7w9CeBII0YPpODk-13" value="Possui" style="shape=rhombus;perimeter=rhombusPerimeter;whiteSpace=wrap;html=1;align=center;fillColor=#f5f5f5;fontColor=#333333;strokeColor=#666666;" parent="1" vertex="1">
          <mxGeometry x="219" y="317" width="62" height="37" as="geometry" />
        </mxCell>
        <mxCell id="ZfcmC7w9CeBII0YPpODk-14" value="" style="endArrow=none;html=1;rounded=0;exitX=1;exitY=0.5;exitDx=0;exitDy=0;entryX=0.5;entryY=0;entryDx=0;entryDy=0;" parent="1" source="ZfcmC7w9CeBII0YPpODk-13" target="lVoV7rFXFMEaR6csnWot-33" edge="1">
          <mxGeometry relative="1" as="geometry">
            <mxPoint x="286" y="365" as="sourcePoint" />
            <mxPoint x="446" y="365" as="targetPoint" />
          </mxGeometry>
        </mxCell>
        <mxCell id="ZfcmC7w9CeBII0YPpODk-15" value="" style="endArrow=none;html=1;rounded=0;exitX=0;exitY=1;exitDx=0;exitDy=0;entryX=0;entryY=0.5;entryDx=0;entryDy=0;" parent="1" source="ZfcmC7w9CeBII0YPpODk-11" target="ZfcmC7w9CeBII0YPpODk-13" edge="1">
          <mxGeometry relative="1" as="geometry">
            <mxPoint x="146" y="293" as="sourcePoint" />
            <mxPoint x="306" y="293" as="targetPoint" />
          </mxGeometry>
        </mxCell>
        <mxCell id="ZfcmC7w9CeBII0YPpODk-16" value="1" style="text;strokeColor=none;align=center;fillColor=none;html=1;verticalAlign=middle;whiteSpace=wrap;rounded=0;" parent="1" vertex="1">
          <mxGeometry x="309" y="393" width="24" height="18" as="geometry" />
        </mxCell>
        <mxCell id="ZfcmC7w9CeBII0YPpODk-17" value="N" style="text;strokeColor=none;align=center;fillColor=none;html=1;verticalAlign=middle;whiteSpace=wrap;rounded=0;" parent="1" vertex="1">
          <mxGeometry x="193" y="282.5" width="24" height="18" as="geometry" />
        </mxCell>
        <mxCell id="ZfcmC7w9CeBII0YPpODk-18" value="Possui" style="shape=rhombus;perimeter=rhombusPerimeter;whiteSpace=wrap;html=1;align=center;fillColor=#f5f5f5;fontColor=#333333;strokeColor=#666666;" parent="1" vertex="1">
          <mxGeometry x="582.5" y="208" width="65" height="38" as="geometry" />
        </mxCell>
        <mxCell id="ZfcmC7w9CeBII0YPpODk-19" value="" style="endArrow=none;html=1;rounded=0;entryX=0;entryY=1;entryDx=0;entryDy=0;exitX=0.5;exitY=0;exitDx=0;exitDy=0;" parent="1" source="ZfcmC7w9CeBII0YPpODk-18" target="lVoV7rFXFMEaR6csnWot-66" edge="1">
          <mxGeometry relative="1" as="geometry">
            <mxPoint x="380" y="117" as="sourcePoint" />
            <mxPoint x="540" y="117" as="targetPoint" />
          </mxGeometry>
        </mxCell>
        <mxCell id="ZfcmC7w9CeBII0YPpODk-20" value="" style="endArrow=none;html=1;rounded=0;exitX=1;exitY=0.5;exitDx=0;exitDy=0;entryX=0;entryY=0.5;entryDx=0;entryDy=0;" parent="1" source="lVoV7rFXFMEaR6csnWot-53" target="ZfcmC7w9CeBII0YPpODk-18" edge="1">
          <mxGeometry relative="1" as="geometry">
            <mxPoint x="360" y="192" as="sourcePoint" />
            <mxPoint x="520" y="192" as="targetPoint" />
          </mxGeometry>
        </mxCell>
        <mxCell id="ZfcmC7w9CeBII0YPpODk-21" value="N" style="text;strokeColor=none;align=center;fillColor=none;html=1;verticalAlign=middle;whiteSpace=wrap;rounded=0;" parent="1" vertex="1">
          <mxGeometry x="611" y="99.5" width="25" height="16" as="geometry" />
        </mxCell>
        <mxCell id="ZfcmC7w9CeBII0YPpODk-22" value="1" style="text;strokeColor=none;align=center;fillColor=none;html=1;verticalAlign=middle;whiteSpace=wrap;rounded=0;" parent="1" vertex="1">
          <mxGeometry x="529" y="285.5" width="20" height="15" as="geometry" />
        </mxCell>
        <mxCell id="ZfcmC7w9CeBII0YPpODk-23" value="Possui" style="shape=rhombus;perimeter=rhombusPerimeter;whiteSpace=wrap;html=1;align=center;fillColor=#f5f5f5;fontColor=#333333;strokeColor=#666666;" parent="1" vertex="1">
          <mxGeometry x="255" y="154" width="63.5" height="36" as="geometry" />
        </mxCell>
        <mxCell id="ZfcmC7w9CeBII0YPpODk-24" value="" style="endArrow=none;html=1;rounded=0;exitX=1;exitY=1;exitDx=0;exitDy=0;entryX=0;entryY=0.5;entryDx=0;entryDy=0;" parent="1" source="lVoV7rFXFMEaR6csnWot-1" target="ZfcmC7w9CeBII0YPpODk-23" edge="1">
          <mxGeometry relative="1" as="geometry">
            <mxPoint x="225" y="95" as="sourcePoint" />
            <mxPoint x="385" y="95" as="targetPoint" />
          </mxGeometry>
        </mxCell>
        <mxCell id="ZfcmC7w9CeBII0YPpODk-25" value="" style="endArrow=none;html=1;rounded=0;exitX=1;exitY=0.5;exitDx=0;exitDy=0;entryX=0;entryY=0;entryDx=0;entryDy=0;" parent="1" source="ZfcmC7w9CeBII0YPpODk-23" target="lVoV7rFXFMEaR6csnWot-53" edge="1">
          <mxGeometry relative="1" as="geometry">
            <mxPoint x="333" y="164" as="sourcePoint" />
            <mxPoint x="493" y="164" as="targetPoint" />
          </mxGeometry>
        </mxCell>
        <mxCell id="ZfcmC7w9CeBII0YPpODk-27" value="1" style="text;strokeColor=none;align=center;fillColor=none;html=1;verticalAlign=middle;whiteSpace=wrap;rounded=0;" parent="1" vertex="1">
          <mxGeometry x="183.5" y="77" width="23" height="13" as="geometry" />
        </mxCell>
        <mxCell id="ZfcmC7w9CeBII0YPpODk-28" value="N" style="text;strokeColor=none;align=center;fillColor=none;html=1;verticalAlign=middle;whiteSpace=wrap;rounded=0;" parent="1" vertex="1">
          <mxGeometry x="402" y="260.5" width="29" height="16" as="geometry" />
        </mxCell>
        <mxCell id="ZfcmC7w9CeBII0YPpODk-30" style="edgeStyle=orthogonalEdgeStyle;rounded=0;orthogonalLoop=1;jettySize=auto;html=1;exitX=0.5;exitY=1;exitDx=0;exitDy=0;" parent="1" source="lVoV7rFXFMEaR6csnWot-59" target="lVoV7rFXFMEaR6csnWot-59" edge="1">
          <mxGeometry relative="1" as="geometry" />
        </mxCell>
        <mxCell id="ZfcmC7w9CeBII0YPpODk-31" value="Possui" style="shape=rhombus;perimeter=rhombusPerimeter;whiteSpace=wrap;html=1;align=center;fillColor=#f5f5f5;fontColor=#333333;strokeColor=#666666;" parent="1" vertex="1">
          <mxGeometry x="244.5" y="43" width="64.5" height="34" as="geometry" />
        </mxCell>
        <mxCell id="ZfcmC7w9CeBII0YPpODk-32" value="" style="endArrow=none;html=1;rounded=0;entryX=0;entryY=0.5;entryDx=0;entryDy=0;exitX=1;exitY=0.5;exitDx=0;exitDy=0;" parent="1" source="ZfcmC7w9CeBII0YPpODk-31" target="lVoV7rFXFMEaR6csnWot-75" edge="1">
          <mxGeometry relative="1" as="geometry">
            <mxPoint x="235" y="107" as="sourcePoint" />
            <mxPoint x="395" y="107" as="targetPoint" />
          </mxGeometry>
        </mxCell>
        <mxCell id="ZfcmC7w9CeBII0YPpODk-33" value="" style="endArrow=none;html=1;rounded=0;exitX=1;exitY=0.5;exitDx=0;exitDy=0;entryX=0;entryY=0.5;entryDx=0;entryDy=0;" parent="1" source="lVoV7rFXFMEaR6csnWot-1" target="ZfcmC7w9CeBII0YPpODk-31" edge="1">
          <mxGeometry relative="1" as="geometry">
            <mxPoint x="235" y="109" as="sourcePoint" />
            <mxPoint x="395" y="109" as="targetPoint" />
          </mxGeometry>
        </mxCell>
        <mxCell id="ZfcmC7w9CeBII0YPpODk-34" value="1" style="text;strokeColor=none;align=center;fillColor=none;html=1;verticalAlign=middle;whiteSpace=wrap;rounded=0;" parent="1" vertex="1">
          <mxGeometry x="197" y="35" width="26" height="16" as="geometry" />
        </mxCell>
        <mxCell id="ZfcmC7w9CeBII0YPpODk-35" value="N" style="text;strokeColor=none;align=center;fillColor=none;html=1;verticalAlign=middle;whiteSpace=wrap;rounded=0;" parent="1" vertex="1">
          <mxGeometry x="330" y="43" width="28" height="16" as="geometry" />
        </mxCell>
        <mxCell id="ZfcmC7w9CeBII0YPpODk-36" value="" style="endArrow=none;html=1;rounded=0;exitX=0.5;exitY=0;exitDx=0;exitDy=0;entryX=0.5;entryY=1;entryDx=0;entryDy=0;" parent="1" source="ZfcmC7w9CeBII0YPpODk-23" target="lVoV7rFXFMEaR6csnWot-75" edge="1">
          <mxGeometry relative="1" as="geometry">
            <mxPoint x="336.5" y="145" as="sourcePoint" />
            <mxPoint x="496.5" y="145" as="targetPoint" />
          </mxGeometry>
        </mxCell>
        <mxCell id="ZfcmC7w9CeBII0YPpODk-37" value="" style="endArrow=none;html=1;rounded=0;exitX=1;exitY=0;exitDx=0;exitDy=0;entryX=0.5;entryY=1;entryDx=0;entryDy=0;" parent="1" source="lVoV7rFXFMEaR6csnWot-15" target="ZfcmC7w9CeBII0YPpODk-23" edge="1">
          <mxGeometry relative="1" as="geometry">
            <mxPoint x="245" y="242" as="sourcePoint" />
            <mxPoint x="383" y="229" as="targetPoint" />
          </mxGeometry>
        </mxCell>
        <mxCell id="ZfcmC7w9CeBII0YPpODk-38" value="N" style="text;strokeColor=none;align=center;fillColor=none;html=1;verticalAlign=middle;whiteSpace=wrap;rounded=0;" parent="1" vertex="1">
          <mxGeometry x="402" y="80" width="24" height="16" as="geometry" />
        </mxCell>
        <mxCell id="ZfcmC7w9CeBII0YPpODk-39" value="1" style="text;strokeColor=none;align=center;fillColor=none;html=1;verticalAlign=middle;whiteSpace=wrap;rounded=0;" parent="1" vertex="1">
          <mxGeometry x="195" y="224" width="26" height="15" as="geometry" />
        </mxCell>
        <mxCell id="ZfcmC7w9CeBII0YPpODk-52" value="Usuario" style="ellipse;whiteSpace=wrap;html=1;align=center;fontStyle=5" parent="1" vertex="1">
          <mxGeometry x="41" y="140" width="61" height="21" as="geometry" />
        </mxCell>
        <mxCell id="ZfcmC7w9CeBII0YPpODk-53" value="" style="endArrow=none;html=1;rounded=0;exitX=0.5;exitY=1;exitDx=0;exitDy=0;entryX=0;entryY=0.5;entryDx=0;entryDy=0;" parent="1" source="ZfcmC7w9CeBII0YPpODk-52" target="ZfcmC7w9CeBII0YPpODk-1" edge="1">
          <mxGeometry relative="1" as="geometry">
            <mxPoint x="360" y="153" as="sourcePoint" />
            <mxPoint x="520" y="153" as="targetPoint" />
          </mxGeometry>
        </mxCell>
        <mxCell id="ZfcmC7w9CeBII0YPpODk-54" value="ID_Evento" style="ellipse;whiteSpace=wrap;html=1;align=center;fontStyle=5" parent="1" vertex="1">
          <mxGeometry x="189" y="163.5" width="64" height="28" as="geometry" />
        </mxCell>
        <mxCell id="ZfcmC7w9CeBII0YPpODk-55" value="" style="endArrow=none;html=1;rounded=0;exitX=0.5;exitY=0;exitDx=0;exitDy=0;entryX=1;entryY=0.5;entryDx=0;entryDy=0;" parent="1" source="ZfcmC7w9CeBII0YPpODk-54" target="ZfcmC7w9CeBII0YPpODk-1" edge="1">
          <mxGeometry relative="1" as="geometry">
            <mxPoint x="360" y="153" as="sourcePoint" />
            <mxPoint x="520" y="153" as="targetPoint" />
          </mxGeometry>
        </mxCell>
        <mxCell id="EgEr3Jq3C008VKK23r06-1" value="Possui" style="shape=rhombus;perimeter=rhombusPerimeter;whiteSpace=wrap;html=1;align=center;fillColor=#f5f5f5;fontColor=#333333;strokeColor=#666666;" parent="1" vertex="1">
          <mxGeometry x="375.5" y="140" width="64.5" height="32" as="geometry" />
        </mxCell>
        <mxCell id="EgEr3Jq3C008VKK23r06-2" value="" style="endArrow=none;html=1;rounded=0;exitX=1;exitY=0.5;exitDx=0;exitDy=0;entryX=0;entryY=0.5;entryDx=0;entryDy=0;" parent="1" source="lVoV7rFXFMEaR6csnWot-1" target="EgEr3Jq3C008VKK23r06-1" edge="1">
          <mxGeometry relative="1" as="geometry">
            <mxPoint x="250" y="131" as="sourcePoint" />
            <mxPoint x="410" y="131" as="targetPoint" />
          </mxGeometry>
        </mxCell>
        <mxCell id="EgEr3Jq3C008VKK23r06-4" value="1" style="text;strokeColor=none;align=center;fillColor=none;html=1;verticalAlign=middle;whiteSpace=wrap;rounded=0;" parent="1" vertex="1">
          <mxGeometry x="198.5" y="62" width="23" height="13" as="geometry" />
        </mxCell>
        <mxCell id="EgEr3Jq3C008VKK23r06-5" value="" style="endArrow=none;html=1;rounded=0;exitX=1;exitY=0.5;exitDx=0;exitDy=0;entryX=0;entryY=0.5;entryDx=0;entryDy=0;" parent="1" source="EgEr3Jq3C008VKK23r06-1" target="lVoV7rFXFMEaR6csnWot-66" edge="1">
          <mxGeometry relative="1" as="geometry">
            <mxPoint x="451" y="158" as="sourcePoint" />
            <mxPoint x="611" y="158" as="targetPoint" />
          </mxGeometry>
        </mxCell>
        <mxCell id="EgEr3Jq3C008VKK23r06-6" value="N" style="text;strokeColor=none;align=center;fillColor=none;html=1;verticalAlign=middle;whiteSpace=wrap;rounded=0;" parent="1" vertex="1">
          <mxGeometry x="589" y="63" width="25" height="16" as="geometry" />
        </mxCell>
      </root>
    </mxGraphModel>
  </diagram>
</mxfile>
